<svg xmlns="http://www.w3.org/2000/svg" xmlns:xlink="http://www.w3.org/1999/xlink" contentStyleType="text/css" data-diagram-type="CLASS" height="597px" preserveAspectRatio="none" style="width:383px;height:597px;background:#FFFFFF;" version="1.1" viewBox="0 0 383 597" width="383px" zoomAndPan="magnify"><?plantuml 1.2026.3beta6?><defs/><g><!--class User--><g class="entity" data-qualified-name="User" data-source-line="6" id="ent0002"><rect fill="#F1F1F1" height="113.1875" rx="2.5" ry="2.5" style="stroke:#181818;stroke-width:0.5;" width="212.293" x="19.72" y="7"/><ellipse cx="105.6614" cy="23" fill="#FFAAAA" rx="11" ry="11" style="stroke:#181818;stroke-width:1;"/><path d="M106.5052,29.75 L104.052,29.75 L104.052,19.5 L100.9114,19.5 L100.9114,17.3594 L109.6458,17.3594 L109.6458,19.5 L106.5052,19.5 L106.5052,29.75 Z " fill="#000000"/><text fill="#000000" font-family="sans-serif" font-size="14" lengthAdjust="spacing" textLength="31.9102" x="126.1614" y="27.8467">User</text><line style="stroke:#181818;stroke-width:0.5;" x1="20.72" x2="231.013" y1="39" y2="39"/><g data-visibility-modifier="PUBLIC_FIELD"><ellipse cx="30.72" cy="52.6484" fill="none" rx="3" ry="3" style="stroke:#038048;stroke-width:1;"/></g><text fill="#000000" font-family="sans-serif" font-size="14" lengthAdjust="spacing" textLength="62.1318" x="39.72" y="55.9951">id: string</text><text fill="#000000" font-family="sans-serif" font-size="14" lengthAdjust="spacing" textLength="89.0586" x="39.72" y="72.292">name: string</text><text fill="#000000" font-family="sans-serif" font-size="14" lengthAdjust="spacing" textLength="87.9648" x="39.72" y="88.5889">email: string</text><text fill="#000000" font-family="sans-serif" font-size="14" lengthAdjust="spacing" textLength="186.293" x="39.72" y="104.8857">subscriptionAlerts: string[]</text><line style="stroke:#181818;stroke-width:0.5;" x1="20.72" x2="231.013" y1="112.1875" y2="112.1875"/></g><!--class WeatherStation--><g class="entity" data-qualified-name="WeatherStation" data-source-line="16" id="ent0003"><rect fill="#F1F1F1" height="145.7813" rx="2.5" ry="2.5" style="stroke:#181818;stroke-width:0.5;" width="145.875" x="52.93" y="197.19"/><ellipse cx="69.8812" cy="213.19" fill="#FFAAAA" rx="11" ry="11" style="stroke:#181818;stroke-width:1;"/><path d="M70.7249,219.94 L68.2718,219.94 L68.2718,209.69 L65.1312,209.69 L65.1312,207.5494 L73.8655,207.5494 L73.8655,209.69 L70.7249,209.69 L70.7249,219.94 Z " fill="#000000"/><text fill="#000000" font-family="sans-serif" font-size="14" lengthAdjust="spacing" textLength="109.5391" x="84.3148" y="218.0367">WeatherStation</text><line style="stroke:#181818;stroke-width:0.5;" x1="53.93" x2="197.805" y1="229.19" y2="229.19"/><g data-visibility-modifier="PUBLIC_FIELD"><ellipse cx="63.93" cy="242.8384" fill="none" rx="3" ry="3" style="stroke:#038048;stroke-width:1;"/></g><text fill="#000000" font-family="sans-serif" font-size="14" lengthAdjust="spacing" textLength="62.1318" x="72.93" y="246.1851">id: string</text><text fill="#000000" font-family="sans-serif" font-size="14" lengthAdjust="spacing" textLength="89.0586" x="72.93" y="262.482">name: string</text><text fill="#000000" font-family="sans-serif" font-size="14" lengthAdjust="spacing" textLength="104.9043" x="72.93" y="278.7789">location: string</text><text fill="#000000" font-family="sans-serif" font-size="14" lengthAdjust="spacing" textLength="92.9482" x="72.93" y="295.0757">model: string</text><text fill="#000000" font-family="sans-serif" font-size="14" lengthAdjust="spacing" textLength="119.875" x="72.93" y="311.3726">isActive: boolean</text><text fill="#000000" font-family="sans-serif" font-size="14" lengthAdjust="spacing" textLength="105.6289" x="72.93" y="327.6695">ownerId: string</text><line style="stroke:#181818;stroke-width:0.5;" x1="53.93" x2="197.805" y1="334.9712" y2="334.9712"/></g><!--class Measurement--><g class="entity" data-qualified-name="Measurement" data-source-line="28" id="ent0004"><rect fill="#F1F1F1" height="162.0781" rx="2.5" ry="2.5" style="stroke:#181818;stroke-width:0.5;" width="237.7295" x="7" y="419.97"/><ellipse cx="73.4043" cy="435.97" fill="#FFAAAA" rx="11" ry="11" style="stroke:#181818;stroke-width:1;"/><path d="M74.248,442.72 L71.7949,442.72 L71.7949,432.47 L68.6543,432.47 L68.6543,430.3294 L77.3887,430.3294 L77.3887,432.47 L74.248,432.47 L74.248,442.72 Z " fill="#000000"/><text fill="#000000" font-family="sans-serif" font-size="14" lengthAdjust="spacing" textLength="96.4209" x="93.9043" y="440.8167">Measurement</text><line style="stroke:#181818;stroke-width:0.5;" x1="8" x2="243.7295" y1="451.97" y2="451.97"/><g data-visibility-modifier="PUBLIC_FIELD"><ellipse cx="18" cy="465.6184" fill="none" rx="3" ry="3" style="stroke:#038048;stroke-width:1;"/></g><text fill="#000000" font-family="sans-serif" font-size="14" lengthAdjust="spacing" textLength="62.1318" x="27" y="468.9651">id: string</text><text fill="#000000" font-family="sans-serif" font-size="14" lengthAdjust="spacing" textLength="169.5176" x="27" y="485.262">weatherStationId: string</text><text fill="#000000" font-family="sans-serif" font-size="14" lengthAdjust="spacing" textLength="118.1455" x="27" y="501.5589">timestamp: Date</text><text fill="#000000" font-family="sans-serif" font-size="14" lengthAdjust="spacing" textLength="152.1133" x="27" y="517.8557">temperature: number</text><text fill="#000000" font-family="sans-serif" font-size="14" lengthAdjust="spacing" textLength="125.6309" x="27" y="534.1526">humidity: number</text><text fill="#000000" font-family="sans-serif" font-size="14" lengthAdjust="spacing" textLength="211.7295" x="27" y="550.4495">atmosphericPressure: number</text><text fill="#000000" font-family="sans-serif" font-size="14" lengthAdjust="spacing" textLength="124.1338" x="27" y="566.7464">alarmType: string</text><line style="stroke:#181818;stroke-width:0.5;" x1="8" x2="243.7295" y1="574.0481" y2="574.0481"/></g><!--link WeatherStation to Measurement--><g class="link" data-entity-1="ent0003" data-entity-2="ent0004" data-link-type="crowfoot" data-source-line="42" id="lnk5"><path codeLine="42" d="M125.86,351.2 C125.86,375.45 125.86,376.65 125.86,401.5" fill="none" id="WeatherStation-Measurement" style="stroke:#181818;stroke-width:1;"/><line style="stroke:#181818;stroke-width:1;" x1="121.86" x2="129.86" y1="347.2" y2="347.2"/><line style="stroke:#181818;stroke-width:1;" x1="121.86" x2="129.86" y1="350.2" y2="350.2"/><line style="stroke:#181818;stroke-width:1;" x1="125.86" x2="125.86" y1="351.2" y2="343.2"/><line style="stroke:#181818;stroke-width:1;" x1="125.86" x2="131.86" y1="411.5" y2="419.5"/><line style="stroke:#181818;stroke-width:1;" x1="125.86" x2="119.86" y1="411.5" y2="419.5"/><line style="stroke:#181818;stroke-width:1;" x1="125.86" x2="125.86" y1="411.5" y2="419.5"/><ellipse cx="125.86" cy="405.5" fill="none" rx="4" ry="4" style="stroke:#181818;stroke-width:1;"/><text fill="#000000" font-family="sans-serif" font-size="13" lengthAdjust="spacing" textLength="63.6733" x="126.86" y="386.0369">has many</text></g><!--link User to WeatherStation--><g class="link" data-entity-1="ent0002" data-entity-2="ent0003" data-link-type="crowfoot" data-source-line="44" id="lnk6"><path codeLine="44" d="M125.86,138.47 C125.86,162 125.86,153.69 125.86,178.75" fill="none" id="User-WeatherStation" style="stroke:#181818;stroke-width:1;"/><line style="stroke:#181818;stroke-width:1;" x1="125.86" x2="119.86" y1="128.47" y2="120.47"/><line style="stroke:#181818;stroke-width:1;" x1="125.86" x2="131.86" y1="128.47" y2="120.47"/><line style="stroke:#181818;stroke-width:1;" x1="125.86" x2="125.86" y1="128.47" y2="120.47"/><ellipse cx="125.86" cy="134.47" fill="none" rx="4" ry="4" style="stroke:#181818;stroke-width:1;"/><line style="stroke:#181818;stroke-width:1;" x1="125.86" x2="131.86" y1="188.75" y2="196.75"/><line style="stroke:#181818;stroke-width:1;" x1="125.86" x2="119.86" y1="188.75" y2="196.75"/><line style="stroke:#181818;stroke-width:1;" x1="125.86" x2="125.86" y1="188.75" y2="196.75"/><ellipse cx="125.86" cy="182.75" fill="none" rx="4" ry="4" style="stroke:#181818;stroke-width:1;"/><text fill="#000000" font-family="sans-serif" font-size="13" lengthAdjust="spacing" textLength="241.0396" x="126.86" y="163.2569">subscribes to (via subscriptionAlerts)</text></g><?plantuml-src ZLBBJiCm4BpdAvPoe17q1w9IAG9NLA859QbwG1msoK8jnNPaEtsexR_Z5X0kwiktdPbTpsZtggGFBWaivXMr5o4K5He32-XsePtTNVVxiNiXz7f1S0Ft1vyZnYbBZlFVmyU6T0Yh0E2Mbn4OgxdyT9L4GLv90ddbrQR9JQ5vRRcISKNQcb_oxJtOd7GrON7sn198ipWRl8pE6PmGsYdfrEBshmkiLghOIJr8g99yzzp4XUKprvKhLH5AXwcv93tuctiwn935wJXXGpRApWKO4ff6ao1f3xcVx-KR-9JbWen5KKVmY9Qs28cQD5etBmBPY9oqGwUDu2MtImz2AvIftLnUl6eoPhy1AzGYMzPqOTg4FSSFRbSiFQuAzXS5wtMderRWfOS8MbCq850kMq6mlJpOg9tgNwyJ_XnOJWQiWlQCuu6R2rjV?></g></svg>